<svg width="64" height="64" viewBox="0 0 64 64" fill="none" xmlns="http://www.w3.org/2000/svg">
<rect width="64" height="64" rx="8" fill="#F4FAFA"/>
<path d="M10.838 38L16.454 25.4H19.334L24.968 38H21.908L17.3 26.876H18.452L13.826 38H10.838ZM13.646 35.3L14.42 33.086H20.9L21.692 35.3H13.646ZM26.2753 38V25.4H28.6873L36.1213 34.472H34.9512V25.4H37.8313V38H35.4373L27.9853 28.928H29.1553V38H26.2753ZM46.8964 38.216C45.9004 38.216 44.9824 38.06 44.1424 37.748C43.3144 37.424 42.5884 36.968 41.9644 36.38C41.3524 35.792 40.8724 35.102 40.5244 34.31C40.1884 33.518 40.0204 32.648 40.0204 31.7C40.0204 30.752 40.1884 29.882 40.5244 29.09C40.8724 28.298 41.3584 27.608 41.9824 27.02C42.6064 26.432 43.3384 25.982 44.1784 25.67C45.0184 25.346 45.9424 25.184 46.9504 25.184C48.0664 25.184 49.0684 25.37 49.9564 25.742C50.8564 26.114 51.6124 26.654 52.2244 27.362L50.3524 29.09C49.8964 28.61 49.3984 28.256 48.8584 28.028C48.3184 27.788 47.7304 27.668 47.0944 27.668C46.4824 27.668 45.9244 27.764 45.4204 27.956C44.9164 28.148 44.4784 28.424 44.1064 28.784C43.7464 29.144 43.4644 29.57 43.2604 30.062C43.0684 30.554 42.9724 31.1 42.9724 31.7C42.9724 32.288 43.0684 32.828 43.2604 33.32C43.4644 33.812 43.7464 34.244 44.1064 34.616C44.4784 34.976 44.9104 35.252 45.4024 35.444C45.9064 35.636 46.4584 35.732 47.0584 35.732C47.6344 35.732 48.1924 35.642 48.7324 35.462C49.2844 35.27 49.8184 34.952 50.3344 34.508L51.9904 36.614C51.3064 37.13 50.5084 37.526 49.5964 37.802C48.6964 38.078 47.7964 38.216 46.8964 38.216ZM51.9904 36.614L49.3264 36.236V31.502H51.9904V36.614Z" fill="#232323"/>
</svg>
